<?xml version="1.0" encoding="UTF-8"?>
<svg width="314px" height="314px" viewBox="0 0 314 314" version="1.1" xmlns="http://www.w3.org/2000/svg" xmlns:xlink="http://www.w3.org/1999/xlink">
    <!-- Generator: Sketch 62 (91390) - https://sketch.com -->
    <title>Logo</title>
    <desc>Created with Sketch.</desc>
    <g id="Logo" stroke="none" stroke-width="1" fill="none" fill-rule="evenodd">
        <rect fill="#FFFFFF" x="0" y="0" width="314" height="314"></rect>
        <path d="M265,25 C278.254834,25 289,35.745166 289,49 L289,265 C289,278.254834 278.254834,289 265,289 L49,289 C35.745166,289 25,278.254834 25,265 L25,49 C25,35.745166 35.745166,25 49,25 L265,25 Z M265,41 L49,41 C44.581722,41 41,44.581722 41,49 L41,265 C41,269.418278 44.581722,273 49,273 L265,273 C269.418278,273 273,269.418278 273,265 L273,49 C273,44.581722 269.418278,41 265,41 Z M169.067114,87 C201.52349,87 219,108.829085 219,135.065967 C219,161.092954 201.52349,182.922039 169.067114,182.922039 L169.067114,182.922039 L137.026846,182.922039 L137.026846,227 L95,227 L95,87 Z M164.412698,124 L138,124 L138,145 L164.412698,145 C171.428571,145 177,141.6 177,134.6 C177,127.4 171.428571,124 164.412698,124 L164.412698,124 Z" id="Combined-Shape" fill="#000000" fill-rule="nonzero"></path>
    </g>
</svg>